<svg id="_1" data-name="1" xmlns="http://www.w3.org/2000/svg" width="171" height="185" viewBox="0 0 171 185">
  <defs>
    <style>
      .cls-1, .cls-2, .cls-3 {
        fill: #fff;
      }

      .cls-1 {
        fill-opacity: 0.1;
        stroke: #fff;
        stroke-linejoin: round;
        stroke-width: 4px;
      }

      .cls-1, .cls-2 {
        fill-rule: evenodd;
      }

      .cls-3 {
        font-size: 18px;
        text-anchor: middle;
        font-family: "Myriad Pro";
      }
    </style>
  </defs>
  <path class="cls-1" d="M493.233,918.136q-20.121-12.087-40.648-23.468t-20.121-34.851q0.406-23.467,0-46.935t20.121-34.851q20.527-11.382,40.648-23.468t40.241,0q20.121,12.087,40.648,23.468t20.121,34.851q-0.407,23.468,0,46.935t-20.121,34.851q-20.527,11.38-40.648,23.468T493.233,918.136Z" transform="translate(-428 -744)"/>
  <path id="settings" class="cls-2" d="M538.66,808.385l-5.412-1.084a21.446,21.446,0,0,0-.947-2.276l3.064-4.6a3.532,3.532,0,0,0-.441-4.456l-3.4-3.4a3.531,3.531,0,0,0-4.456-.442l-4.6,3.064a21.317,21.317,0,0,0-2.278-.946l-1.083-5.413a3.53,3.53,0,0,0-3.462-2.84h-4.8a3.53,3.53,0,0,0-3.462,2.84l-1.085,5.413a21.319,21.319,0,0,0-2.276.946l-4.6-3.064a3.531,3.531,0,0,0-4.456.442l-3.4,3.4a3.53,3.53,0,0,0-.441,4.456l3.064,4.6a21.237,21.237,0,0,0-.947,2.278l-5.412,1.082a3.531,3.531,0,0,0-2.84,3.462v4.805a3.529,3.529,0,0,0,2.84,3.461l5.412,1.085a21.55,21.55,0,0,0,.947,2.277l-3.064,4.6a3.529,3.529,0,0,0,.441,4.455l3.4,3.4a3.532,3.532,0,0,0,4.456.441l4.6-3.064a21.317,21.317,0,0,0,2.278.946l1.083,5.413a3.529,3.529,0,0,0,3.462,2.839h4.8a3.529,3.529,0,0,0,3.462-2.839l1.085-5.413a21.405,21.405,0,0,0,2.276-.946l4.6,3.064a3.532,3.532,0,0,0,4.456-.441l3.4-3.4a3.53,3.53,0,0,0,.441-4.455l-3.064-4.6a21.339,21.339,0,0,0,.947-2.279l5.412-1.083a3.529,3.529,0,0,0,2.84-3.461v-4.805A3.531,3.531,0,0,0,538.66,808.385Zm-6.105,9.349a3.529,3.529,0,0,0-2.642,2.3,17.592,17.592,0,0,1-.79,1.9,3.53,3.53,0,0,0,.24,3.5l3.064,4.6-3.4,3.4-4.6-3.065a3.532,3.532,0,0,0-3.5-.241,17.773,17.773,0,0,1-1.9.792,3.528,3.528,0,0,0-2.3,2.641l-1.084,5.414h-4.8l-1.083-5.414a3.528,3.528,0,0,0-2.3-2.641,17.883,17.883,0,0,1-1.9-.79,3.53,3.53,0,0,0-3.5.239l-4.6,3.065-3.4-3.4,3.064-4.6a3.536,3.536,0,0,0,.241-3.5,17.751,17.751,0,0,1-.791-1.9,3.529,3.529,0,0,0-2.642-2.3l-5.412-1.084,0-4.805,5.414-1.083a3.528,3.528,0,0,0,2.642-2.3,17.31,17.31,0,0,1,.79-1.9,3.529,3.529,0,0,0-.24-3.5l-3.064-4.6,3.4-3.4,4.6,3.065a3.534,3.534,0,0,0,3.5.241,17.687,17.687,0,0,1,1.9-.792,3.528,3.528,0,0,0,2.3-2.641l1.084-5.413h4.8l1.083,5.414a3.525,3.525,0,0,0,2.3,2.641,17.813,17.813,0,0,1,1.9.79,3.528,3.528,0,0,0,3.5-.239l4.6-3.065,3.4,3.4-3.064,4.6a3.536,3.536,0,0,0-.241,3.5,17.872,17.872,0,0,1,.791,1.9,3.529,3.529,0,0,0,2.642,2.3l5.412,1.084,0,4.805Zm-19.3-15.844a12.36,12.36,0,1,0,12.359,12.36A12.361,12.361,0,0,0,513.25,801.89Zm0,23.174a10.815,10.815,0,1,1,10.814-10.814A10.816,10.816,0,0,1,513.25,825.064Zm0-17.877a7.063,7.063,0,1,0,7.062,7.063A7.061,7.061,0,0,0,513.25,807.187Zm0,12.359a5.3,5.3,0,1,1,5.3-5.3A5.3,5.3,0,0,1,513.25,819.546Z" transform="translate(-428 -744)"/>
  <text id="About" class="cls-3" x="84" y="143">About</text>
</svg>
