<svg id="_2" data-name="2" xmlns="http://www.w3.org/2000/svg" width="171" height="185" viewBox="0 0 171 185">
  <defs>
    <style>
      .cls-1, .cls-2, .cls-3 {
        fill: #fff;
      }

      .cls-1 {
        fill-opacity: 0.1;
        stroke: #fff;
        stroke-linejoin: round;
        stroke-width: 4px;
      }

      .cls-1, .cls-2 {
        fill-rule: evenodd;
      }

      .cls-3 {
        font-size: 18px;
        text-anchor: middle;
        font-family: Poppins;
      }
    </style>
  </defs>
  <path class="cls-1" d="M687.233,918.136q-20.121-12.087-40.648-23.468t-20.121-34.851q0.406-23.467,0-46.935t20.121-34.851q20.527-11.382,40.648-23.468t40.241,0q20.121,12.087,40.648,23.468t20.121,34.851q-0.407,23.468,0,46.935t-20.121,34.851q-20.527,11.38-40.648,23.468T687.233,918.136Z" transform="translate(-622 -744)"/>
  <path id="user" class="cls-2" d="M735.441,836.587a51.109,51.109,0,0,0-16.226-6.471,39.74,39.74,0,0,0,6.668-14.3c1.318-5.474.807-16.184-4.45-22.857a15.945,15.945,0,0,0-24.866,0c-5.257,6.673-5.768,17.383-4.45,22.857a39.723,39.723,0,0,0,6.668,14.3,51.109,51.109,0,0,0-16.226,6.471A3.5,3.5,0,0,0,684.5,843h49A3.5,3.5,0,0,0,735.441,836.587Zm-18.974-8.64-0.573.726c-4.173,4.794-9.615,4.794-13.788,0l-0.573-.726a29.915,29.915,0,0,1-6.251-22.137c0.955-7.489,5.247-15.311,13.718-15.311s12.763,7.822,13.718,15.311A29.921,29.921,0,0,1,716.467,827.947ZM684.5,839.5a47.647,47.647,0,0,1,15.025-5.962l4.348-.942a8.773,8.773,0,0,0,10.254,0l4.348,0.942A47.71,47.71,0,0,1,733.5,839.5h-49Z" transform="translate(-622 -744)"/>
  <text id="Team" class="cls-3" x="87" y="143">Team</text>
</svg>
