<svg id="_3" data-name="3" xmlns="http://www.w3.org/2000/svg" width="171" height="185" viewBox="0 0 171 185">
  <defs>
    <style>
      .cls-1, .cls-2, .cls-3 {
        fill: #fff;
      }

      .cls-1 {
        fill-opacity: 0.1;
        stroke: #fff;
        stroke-linejoin: round;
        stroke-width: 4px;
      }

      .cls-1, .cls-2 {
        fill-rule: evenodd;
      }

      .cls-3 {
        font-size: 18px;
        text-anchor: middle;
        font-family: Poppins;
      }
    </style>
  </defs>
  <path class="cls-1" d="M882.233,712.136q-20.121-12.087-40.648-23.468t-20.121-34.85q0.406-23.469,0-46.937t20.121-34.85q20.527-11.382,40.648-23.468t40.241,0q20.121,12.086,40.648,23.468t20.121,34.85q-0.407,23.469,0,46.937t-20.121,34.85q-20.527,11.382-40.648,23.468T882.233,712.136Z" transform="translate(-817 -538)"/>
  <path id="bubble" class="cls-2" d="M902.513,584.535c-11.371,0-20.978,6.114-20.978,13.349a0.954,0.954,0,1,0,1.907,0c0-6.1,8.912-11.442,19.071-11.442A0.954,0.954,0,1,0,902.513,584.535Zm0-9.536C885.66,575,872,585.246,872,597.884c0,7.871,5.3,14.81,13.364,18.93,0,0.052-.014.085-0.014,0.141,0,3.42-2.554,7.1-3.677,9.033h0a1.724,1.724,0,0,0,1.587,2.409,4.467,4.467,0,0,1,.486-0.023c5.959-.976,11.574-6.451,12.878-8.04a40.585,40.585,0,0,0,5.885.435c16.851,0,30.514-10.246,30.514-22.885S919.364,575,902.513,575Zm0,41.956a36.94,36.94,0,0,1-5.332-.394,3.687,3.687,0,0,0-.553-0.042,3.814,3.814,0,0,0-2.948,1.395,25.647,25.647,0,0,1-5.883,4.842,14.918,14.918,0,0,0,1.365-5.59c0.011-.123.017-0.246,0.017-0.352a3.818,3.818,0,0,0-2.079-3.4c-7.068-3.609-11.286-9.415-11.286-15.532,0-10.515,11.977-19.07,26.7-19.07s26.7,8.555,26.7,19.07S917.235,616.955,902.513,616.955Z" transform="translate(-817 -538)"/>
  <text id="Services" class="cls-3" x="86" y="135">Services</text>
</svg>
