<svg id="_4" data-name="4" xmlns="http://www.w3.org/2000/svg" width="171" height="185" viewBox="0 0 171 185">
  <defs>
    <style>
      .cls-1, .cls-2, .cls-3 {
        fill: #fff;
      }

      .cls-1 {
        fill-opacity: 0.1;
        stroke: #fff;
        stroke-linejoin: round;
        stroke-width: 4px;
      }

      .cls-1, .cls-2 {
        fill-rule: evenodd;
      }

      .cls-3 {
        font-size: 18px;
        text-anchor: middle;
        font-family: Poppins;
      }
    </style>
  </defs>
  <path id="Shape_2_copy_4" data-name="Shape 2 copy 4" class="cls-1" d="M1076.23,712.136q-20.115-12.087-40.65-23.468t-20.12-34.85q0.42-23.469,0-46.937t20.12-34.85q20.535-11.382,40.65-23.468,20.13-12.086,40.24,0,20.13,12.086,40.65,23.468,20.535,11.382,20.12,34.85t0,46.937q0.4,23.467-20.12,34.85t-40.65,23.468Q1096.355,724.222,1076.23,712.136Z" transform="translate(-1011 -538)"/>
  <path id="photo" class="cls-2" d="M1115.08,575h-36.45a6.63,6.63,0,0,0-6.63,6.628v39.767a6.63,6.63,0,0,0,6.63,6.628h36.45a6.63,6.63,0,0,0,6.63-6.628V581.627A6.63,6.63,0,0,0,1115.08,575Zm3.31,46.395a3.314,3.314,0,0,1-3.31,3.314h-36.45a3.323,3.323,0,0,1-3.32-3.314V581.627a3.321,3.321,0,0,1,3.32-3.314h36.45a3.313,3.313,0,0,1,3.31,3.314v39.767Zm-4.97-39.767h-33.14a1.654,1.654,0,0,0-1.65,1.657v29.825a1.653,1.653,0,0,0,1.65,1.657h33.14a1.655,1.655,0,0,0,1.66-1.657V583.284A1.656,1.656,0,0,0,1113.42,581.627Zm0,1.657v22.981l-5.38-5.851a1.662,1.662,0,0,0-2.49,0l-4.31,4.89-13.08-14.831a1.66,1.66,0,0,0-2.49,0l-5.39,6.21v-13.4h33.14Zm-33.14,15.906,6.63-7.622,13.37,15.15,0.96,1.091,4.58,5.3h-25.54V599.19Zm27.74,13.919-5.68-6.553,4.46-5.046,6.62,7.257v4.342h-5.4Zm-4.54-16.57a4.971,4.971,0,1,0-4.97-4.971A4.967,4.967,0,0,0,1103.48,596.539Zm0-8.285a3.314,3.314,0,1,1-3.31,3.314A3.321,3.321,0,0,1,1103.48,588.254Z" transform="translate(-1011 -538)"/>
  <text id="Portfolio" class="cls-3" x="87" y="135">Portfolio</text>
</svg>
