<svg id="_5" data-name="5" xmlns="http://www.w3.org/2000/svg" width="171" height="185" viewBox="0 0 171 185">
  <defs>
    <style>
      .cls-1, .cls-2, .cls-3 {
        fill: #fff;
      }

      .cls-1 {
        fill-opacity: 0.1;
        stroke: #fff;
        stroke-linejoin: round;
        stroke-width: 4px;
      }

      .cls-1, .cls-2 {
        fill-rule: evenodd;
      }

      .cls-3 {
        font-size: 18px;
        text-anchor: middle;
        font-family: Poppins;
      }
    </style>
  </defs>
  <path class="cls-1" d="M1275.23,918.136q-20.115-12.087-40.65-23.468-20.52-11.384-20.12-34.851,0.42-23.467,0-46.935-0.4-23.469,20.12-34.851t40.65-23.468q20.13-12.086,40.24,0,20.13,12.087,40.65,23.468,20.535,11.384,20.12,34.851t0,46.935q0.4,23.469-20.12,34.851t-40.65,23.468Q1295.355,930.222,1275.23,918.136Z" transform="translate(-1210 -744)"/>
  <path id="pen" class="cls-2" d="M1321.28,790.676A15.489,15.489,0,0,0,1310.5,786a11.846,11.846,0,0,0-8.46,3.4l-8.82,8.888c-0.03.025-.06,0.043-0.09,0.07-0.01.014-.02,0.033-0.03,0.047v0l-18.72,18.865a7.241,7.241,0,0,0-1.84,3.09l-4.26,15.42a13.405,13.405,0,0,0-.28,1.87,6.345,6.345,0,0,0,6.35,6.343,12.977,12.977,0,0,0,2.1-.339l15.37-4.04a7.4,7.4,0,0,0,3.09-1.84l27.66-27.882C1327.6,804.861,1327.04,796.422,1321.28,790.676Zm-24.25,38.454a14.615,14.615,0,0,0-1.31-4.764l17.14-17.134a8.828,8.828,0,0,1-1.79,9.07c-0.01.015-.03,0.023-0.04,0.037l0.02,0.024-14.01,14.117A12.175,12.175,0,0,0,1297.03,829.13Zm-2.22-6.417a14.814,14.814,0,0,0-6.1-5.837l17.28-17.276a12.679,12.679,0,0,1,3.8,2.606,12.546,12.546,0,0,1,2.32,3.209Zm-7.8-6.694a14.469,14.469,0,0,0-5.2-1.085l13.96-14.068a8.706,8.706,0,0,1,8.32-1.924Zm-11.46,24.126a8.582,8.582,0,0,1-1.23.229,2.727,2.727,0,0,1-2.7-2.718c0.03-.3.15-0.827,0.19-1.02l1.91-6.914a8.6,8.6,0,0,1,8.58,8.652Zm8.53-2.241a10.086,10.086,0,0,0-3.03-6.955,10.309,10.309,0,0,0-6.82-3.08l1.8-6.538a3.706,3.706,0,0,1,.71-1.241c3.64-2.6,9.23-1.834,13.11,2.054,4.11,4.108,4.75,10.123,1.58,13.717a3.692,3.692,0,0,1-.65.285ZM1320,807.337l-3.05,3.076c0-.409.05-0.8,0.01-1.221a16.016,16.016,0,0,0-15.35-14.21l3-3.026a8.253,8.253,0,0,1,5.89-2.332,12.517,12.517,0,0,1,11.85,11.171A8.289,8.289,0,0,1,1320,807.337Z" transform="translate(-1210 -744)"/>
  <text id="Blog" class="cls-3" x="85" y="143">Blog</text>
</svg>
