<svg id="_6" data-name="6" xmlns="http://www.w3.org/2000/svg" width="171" height="185" viewBox="0 0 171 185">
  <defs>
    <style>
      .cls-1, .cls-2, .cls-3 {
        fill: #fff;
      }

      .cls-1 {
        fill-opacity: 0.1;
        stroke: #fff;
        stroke-linejoin: round;
        stroke-width: 4px;
      }

      .cls-1, .cls-2 {
        fill-rule: evenodd;
      }

      .cls-3 {
        font-size: 18px;
        text-anchor: middle;
        font-family: Poppins;
      }
    </style>
  </defs>
  <path class="cls-1" d="M1469.23,918.136q-20.115-12.087-40.65-23.468-20.52-11.384-20.12-34.851,0.42-23.467,0-46.935-0.4-23.469,20.12-34.851t40.65-23.468q20.13-12.086,40.24,0,20.13,12.087,40.65,23.468,20.535,11.384,20.12,34.851t0,46.935q0.4,23.469-20.12,34.851t-40.65,23.468Q1489.355,930.222,1469.23,918.136Z" transform="translate(-1404 -744)"/>
  <path id="paperplane" class="cls-2" d="M1507.17,788.29a1.793,1.793,0,0,0-.98-0.291,1.824,1.824,0,0,0-1.01.3l-54.37,36.25a1.809,1.809,0,0,0,.33,3.189l14.18,5.675,6.67,11.668a1.811,1.811,0,0,0,1.55.914h0.02a1.823,1.823,0,0,0,1.56-.882l3.76-6.276,17.57,7.027a1.814,1.814,0,0,0,.67.131,1.783,1.783,0,0,0,.89-0.234,1.807,1.807,0,0,0,.9-1.282l9.06-54.375A1.8,1.8,0,0,0,1507.17,788.29Zm-51.49,37.368,42.01-28-30.54,32.692a3.975,3.975,0,0,0-.48-0.293Zm12.79,5.962a0.017,0.017,0,0,1-.01-0.018l34.33-36.749-29.27,45.606Zm27.24,10.046-15.48-6.191a3.651,3.651,0,0,0-1.14-.216l23.84-36.954Z" transform="translate(-1404 -744)"/>
  <text id="Contact" class="cls-3" x="84" y="143">Contact</text>
</svg>
