<svg xmlns="http://www.w3.org/2000/svg" width="172" height="186" viewBox="0 0 172 186">
  <defs>
    <style>
      .cls-1 {
        fill: #fff;
        fill-opacity: 0.1;
        stroke: #ccd0d2;
        stroke-linejoin: round;
        stroke-width: 4px;
      }

      .cls-1, .cls-2 {
        fill-rule: evenodd;
      }

      .cls-2 {
        fill: #d1d5d7;
      }
    </style>
  </defs>
  <path id="Shape_2_copy_3" data-name="Shape 2 copy 3" class="cls-1" d="M1419.57,1583.07q-20.235-12.15-40.87-23.6t-20.24-35.04q0.42-23.6,0-47.19-0.4-23.61,20.24-35.05t40.87-23.59q20.235-12.165,40.46,0t40.87,23.59q20.64,11.445,20.24,35.05-0.42,23.6,0,47.19,0.4,23.6-20.24,35.04t-40.87,23.6Q1439.8,1595.22,1419.57,1583.07Z" transform="translate(-1354 -1408)"/>
  <path id="phone" class="cls-2" d="M1457.34,1472.1H1425.9a5.9,5.9,0,0,0-5.9,5.9v51.1a5.9,5.9,0,0,0,5.9,5.9h31.44a5.9,5.9,0,0,0,5.9-5.9V1478A5.9,5.9,0,0,0,1457.34,1472.1Zm1.97,57a1.967,1.967,0,0,1-1.97,1.97H1425.9a1.967,1.967,0,0,1-1.97-1.97v-3.93l35.38-.01v3.94Zm0-5.9h-35.38v-39.3h35.38v39.3Zm0-41.27h-35.38V1478a1.965,1.965,0,0,1,1.97-1.96l31.44-.01a1.967,1.967,0,0,1,1.97,1.97v3.93Zm-13.76-2.95a0.982,0.982,0,0,1-.98.98h-5.9a0.982,0.982,0,0,1-.98-0.98h0a0.982,0.982,0,0,1,.98-0.98h5.9a0.982,0.982,0,0,1,.98.98h0Zm-1.96,49.13a0.984,0.984,0,0,1-.99.98h-1.96a0.975,0.975,0,0,1-.98-0.98h0a0.975,0.975,0,0,1,.98-0.98h1.96a0.984,0.984,0,0,1,.99.98h0Z" transform="translate(-1354 -1408)"/>
</svg>
