<svg xmlns="http://www.w3.org/2000/svg" width="172" height="186" viewBox="0 0 172 186">
  <defs>
    <style>
      .cls-1 {
        fill: #fff;
        fill-opacity: 0.1;
        stroke: #ccd0d2;
        stroke-linejoin: round;
        stroke-width: 4px;
      }

      .cls-1, .cls-2 {
        fill-rule: evenodd;
      }

      .cls-2 {
        fill: #d1d5d7;
      }
    </style>
  </defs>
  <path id="Shape_2_copy_3" data-name="Shape 2 copy 3" class="cls-1" d="M1127.57,1583.07q-20.235-12.15-40.87-23.6t-20.24-35.04q0.42-23.6,0-47.19-0.4-23.61,20.24-35.05t40.87-23.59q20.235-12.165,40.46,0t40.87,23.59q20.64,11.445,20.24,35.05-0.42,23.6,0,47.19,0.4,23.6-20.24,35.04t-40.87,23.6Q1147.8,1595.22,1127.57,1583.07Z" transform="translate(-1062 -1408)"/>
  <path id="cup" class="cls-2" d="M1172.74,1482.61l-2.31-6.96a3.817,3.817,0,0,0-3.62-2.61h-34.29a3.8,3.8,0,0,0-3.61,2.61l-2.33,6.96a3.8,3.8,0,0,0-3.58,3.77v5.71a3.809,3.809,0,0,0,3.81,3.81h1.97a3.131,3.131,0,0,0-.04.42l3.81,34.29a3.8,3.8,0,0,0,3.78,3.39H1163a3.819,3.819,0,0,0,3.79-3.39l3.81-34.29c0.01-.14-0.04-0.27-0.04-0.42h1.97a3.809,3.809,0,0,0,3.81-3.81v-5.71A3.794,3.794,0,0,0,1172.74,1482.61Zm-40.22-5.76h34.29l1.91,5.72h-38.1Zm3.81,53.34-0.63-5.71h27.94l-0.64,5.71h-26.67Zm27.52-7.62h-28.36l-2.12-19.05h32.6Zm2.33-20.95h-33.02l-0.64-5.72h34.29Zm6.35-9.53h-45.72v-5.71h45.72v5.71Z" transform="translate(-1062 -1408)"/>
</svg>
