<svg xmlns="http://www.w3.org/2000/svg" width="172" height="186" viewBox="0 0 172 186">
  <defs>
    <style>
      .cls-1 {
        fill: #fff;
        fill-opacity: 0.1;
        stroke: #ccd0d2;
        stroke-linejoin: round;
        stroke-width: 4px;
      }

      .cls-1, .cls-2 {
        fill-rule: evenodd;
      }

      .cls-2 {
        fill: #ccd0d2;
      }
    </style>
  </defs>
  <path id="Shape_2_copy_3" data-name="Shape 2 copy 3" class="cls-1" d="M541.568,1583.07q-20.232-12.15-40.872-23.6t-20.232-35.04q0.41-23.6,0-47.19t20.232-35.05q20.64-11.445,40.872-23.59,20.232-12.165,40.464,0t40.872,23.59q20.64,11.445,20.232,35.05t0,47.19q0.408,23.6-20.232,35.04t-40.872,23.6Q561.8,1595.22,541.568,1583.07Z" transform="translate(-476 -1408)"/>
  <path id="heart" class="cls-2" d="M592.825,1478.56a21.191,21.191,0,0,0-29.011-.63,21.19,21.19,0,0,0-29.01.63,20.679,20.679,0,0,0,0,29.47c2.352,2.33,24.306,24.04,24.306,24.04a6.7,6.7,0,0,0,9.409,0s24.04-23.78,24.306-24.04A20.679,20.679,0,0,0,592.825,1478.56Zm-3.137,26.37-24.307,24.04a2.243,2.243,0,0,1-3.133,0l-24.306-24.04a16.343,16.343,0,0,1,0-23.27,16.706,16.706,0,0,1,22.891-.48l2.981,2.68,2.983-2.68a16.706,16.706,0,0,1,22.891.48A16.345,16.345,0,0,1,589.688,1504.93Zm-40.714-21.45h-0.009a9.336,9.336,0,0,0-9.337,9.33h0a1.1,1.1,0,1,0,2.2,0h0a7.145,7.145,0,0,1,7.145-7.14h0A1.1,1.1,0,1,0,548.974,1483.48Z" transform="translate(-476 -1408)"/>
</svg>
